<svg xmlns="http://www.w3.org/2000/svg" viewBox="0 0 64 64" role="img" aria-labelledby="title desc">
  <title id="title">CodeCartographer logo</title>
  <desc id="desc">A folded map with a highlighted route over subtle matrix-style code marks.</desc>
  <defs>
    <linearGradient id="bg" x1="8" y1="6" x2="56" y2="58" gradientUnits="userSpaceOnUse">
      <stop offset="0" stop-color="#303431"/>
      <stop offset="1" stop-color="#111312"/>
    </linearGradient>
    <linearGradient id="route" x1="18" y1="45" x2="48" y2="18" gradientUnits="userSpaceOnUse">
      <stop offset="0" stop-color="#b8432f"/>
      <stop offset="1" stop-color="#f1a84f"/>
    </linearGradient>
  </defs>

  <rect x="4" y="4" width="56" height="56" rx="14" fill="url(#bg)"/>
  <rect x="5" y="5" width="54" height="54" rx="13" fill="none" stroke="#f5efd8" stroke-opacity="0.22" stroke-width="2"/>

  <!-- Matrix/code rain: intentionally sparse so it survives favicon/header size. -->
  <g stroke="#63e6a4" stroke-width="2.2" stroke-linecap="round" opacity="0.42">
    <path d="M15 14v5M15 25v4M49 13v7M49 28v4"/>
    <path d="M25 11v4M39 49v4" opacity="0.65"/>
  </g>

  <!-- Simplified folded map silhouette. -->
  <path d="M15 22 27 16l12 6 10-5v25l-10 6-12-6-12 6Z" fill="#f5efd8"/>
  <path d="M27 16v26M39 22v26" fill="none" stroke="#141413" stroke-opacity="0.25" stroke-width="2"/>
  <path d="M15 22 27 16l12 6 10-5v25l-10 6-12-6-12 6Z" fill="none" stroke="#141413" stroke-opacity="0.38" stroke-width="2" stroke-linejoin="round"/>

  <!-- Cartography contour lines. -->
  <g fill="none" stroke="#2c5862" stroke-width="2.2" stroke-linecap="round" opacity="0.9">
    <path d="M19 29c3-2 5-2 8 0"/>
    <path d="M31 29c2.5 1.3 4.5 1.1 6.5-.2"/>
    <path d="M43 29c2-1.5 3.4-1.5 5 .1"/>
  </g>

  <!-- Dominant route/compass mark. -->
  <path d="M18 43c7-10 12-11 17-12 6-1 8-7 13-13" fill="none" stroke="#141413" stroke-opacity="0.28" stroke-width="7" stroke-linecap="round"/>
  <path d="M18 43c7-10 12-11 17-12 6-1 8-7 13-13" fill="none" stroke="url(#route)" stroke-width="4.5" stroke-linecap="round"/>
  <circle cx="18" cy="43" r="4" fill="#141413" stroke="#f5efd8" stroke-width="2"/>
  <circle cx="35" cy="31" r="3.3" fill="#141413" stroke="#f5efd8" stroke-width="2"/>
  <path d="M48 11.5 52 19l-4 7.5-4-7.5Z" fill="#b8432f" stroke="#f5efd8" stroke-width="2" stroke-linejoin="round"/>
</svg>
